<svg xmlns="http://www.w3.org/2000/svg" xmlns:xlink="http://www.w3.org/1999/xlink" width="1000" zoomAndPan="magnify" viewBox="0 0 750 749.999995" height="1000" preserveAspectRatio="xMidYMid meet" version="1.0"><path fill="#124eeb" d="M 321.464844 321.414062 L 428.613281 321.414062 L 428.613281 428.558594 L 321.464844 428.558594 Z M 321.464844 321.414062 " fill-opacity="1" fill-rule="nonzero"/><path fill="#124eeb" d="M 321.464844 428.585938 L 428.613281 428.585938 L 428.613281 535.707031 L 321.464844 535.707031 Z M 321.464844 428.585938 " fill-opacity="0.6" fill-rule="nonzero"/><path fill="#124eeb" d="M 428.535156 428.585938 L 535.679688 428.585938 L 535.679688 535.707031 L 428.535156 535.707031 Z M 428.535156 428.585938 " fill-opacity="0.32" fill-rule="nonzero"/><path fill="#124eeb" d="M 535.707031 428.585938 L 642.851562 428.585938 L 642.851562 535.707031 L 535.707031 535.707031 Z M 535.707031 428.585938 " fill-opacity="0.07" fill-rule="nonzero"/><path fill="#124eeb" d="M 214.292969 428.585938 L 321.441406 428.585938 L 321.441406 535.707031 L 214.292969 535.707031 Z M 214.292969 428.585938 " fill-opacity="0.32" fill-rule="nonzero"/><path fill="#124eeb" d="M 107.148438 428.585938 L 214.292969 428.585938 L 214.292969 535.707031 L 107.148438 535.707031 Z M 107.148438 428.585938 " fill-opacity="0.07" fill-rule="nonzero"/><path fill="#124eeb" d="M 321.464844 535.707031 L 428.613281 535.707031 L 428.613281 642.851562 L 321.464844 642.851562 Z M 321.464844 535.707031 " fill-opacity="0.32" fill-rule="nonzero"/><path fill="#124eeb" d="M 214.292969 535.707031 L 321.441406 535.707031 L 321.441406 642.851562 L 214.292969 642.851562 Z M 428.535156 535.707031 L 535.679688 535.707031 L 535.679688 642.851562 L 428.535156 642.851562 Z M 321.464844 642.851562 L 428.613281 642.851562 L 428.613281 750 L 321.464844 750 Z M 321.464844 642.851562 " fill-opacity="0.07" fill-rule="nonzero"/><path fill="#124eeb" d="M 214.292969 321.414062 L 321.441406 321.414062 L 321.441406 428.558594 L 214.292969 428.558594 Z M 214.292969 321.414062 " fill-opacity="0.6" fill-rule="nonzero"/><path fill="#124eeb" d="M 107.148438 321.414062 L 214.292969 321.414062 L 214.292969 428.558594 L 107.148438 428.558594 Z M 107.148438 321.414062 " fill-opacity="0.32" fill-rule="nonzero"/><path fill="#124eeb" d="M 0 321.414062 L 107.148438 321.414062 L 107.148438 428.558594 L 0 428.558594 Z M 0 321.414062 " fill-opacity="0.07" fill-rule="nonzero"/><path fill="#124eeb" d="M 428.535156 321.414062 L 535.679688 321.414062 L 535.679688 428.558594 L 428.535156 428.558594 Z M 428.535156 321.414062 " fill-opacity="0.6" fill-rule="nonzero"/><path fill="#124eeb" d="M 535.707031 321.414062 L 642.851562 321.414062 L 642.851562 428.558594 L 535.707031 428.558594 Z M 535.707031 321.414062 " fill-opacity="0.32" fill-rule="nonzero"/><path fill="#124eeb" d="M 642.851562 321.414062 L 750 321.414062 L 750 428.558594 L 642.851562 428.558594 Z M 642.851562 321.414062 " fill-opacity="0.07" fill-rule="nonzero"/><path fill="#124eeb" d="M 321.464844 214.292969 L 428.613281 214.292969 L 428.613281 321.441406 L 321.464844 321.441406 Z M 321.464844 214.292969 " fill-opacity="0.6" fill-rule="nonzero"/><path fill="#124eeb" d="M 214.292969 214.292969 L 321.441406 214.292969 L 321.441406 321.441406 L 214.292969 321.441406 Z M 214.292969 214.292969 " fill-opacity="0.32" fill-rule="nonzero"/><path fill="#124eeb" d="M 214.292969 107.148438 L 321.441406 107.148438 L 321.441406 214.292969 L 214.292969 214.292969 Z M 107.148438 214.292969 L 214.292969 214.292969 L 214.292969 321.441406 L 107.148438 321.441406 Z M 107.148438 214.292969 " fill-opacity="0.07" fill-rule="nonzero"/><path fill="#124eeb" d="M 428.535156 214.292969 L 535.679688 214.292969 L 535.679688 321.441406 L 428.535156 321.441406 Z M 428.535156 214.292969 " fill-opacity="0.32" fill-rule="nonzero"/><path fill="#124eeb" d="M 428.535156 107.148438 L 535.679688 107.148438 L 535.679688 214.292969 L 428.535156 214.292969 Z M 535.707031 214.292969 L 642.851562 214.292969 L 642.851562 321.441406 L 535.707031 321.441406 Z M 535.707031 214.292969 " fill-opacity="0.07" fill-rule="nonzero"/><path fill="#124eeb" d="M 321.464844 107.148438 L 428.613281 107.148438 L 428.613281 214.292969 L 321.464844 214.292969 Z M 321.464844 107.148438 " fill-opacity="0.32" fill-rule="nonzero"/><path fill="#124eeb" d="M 321.464844 0 L 428.613281 0 L 428.613281 107.148438 L 321.464844 107.148438 Z M 321.464844 0 " fill-opacity="0.07" fill-rule="nonzero"/></svg>