<svg xmlns="http://www.w3.org/2000/svg" xmlns:xlink="http://www.w3.org/1999/xlink" width="1000" zoomAndPan="magnify" viewBox="0 0 750 749.999995" height="1000" preserveAspectRatio="xMidYMid meet" version="1.0"><defs><clipPath id="21983e66c8"><path d="M 271 478 L 479 478 L 479 617.15625 L 271 617.15625 Z M 271 478 " clip-rule="nonzero"/></clipPath><clipPath id="5fb56cdcde"><path d="M 132.65625 340 L 202 340 L 202 410 L 132.65625 410 Z M 132.65625 340 " clip-rule="nonzero"/></clipPath><clipPath id="b08130db74"><path d="M 547 340 L 617.15625 340 L 617.15625 410 L 547 410 Z M 547 340 " clip-rule="nonzero"/></clipPath><clipPath id="f7a7270cda"><path d="M 340 132.65625 L 410 132.65625 L 410 202 L 340 202 Z M 340 132.65625 " clip-rule="nonzero"/></clipPath></defs><rect x="-75" width="900" fill="#ffffff" y="-74.999999" height="899.999994" fill-opacity="1"/><rect x="-75" width="900" fill="#ffffff" y="-74.999999" height="899.999994" fill-opacity="1"/><path fill="#124eeb" d="M 340.320312 340.289062 L 409.539062 340.289062 L 409.539062 409.503906 L 340.320312 409.503906 Z M 340.320312 340.289062 " fill-opacity="1" fill-rule="nonzero"/><path fill="#124eeb" d="M 340.320312 409.523438 L 409.539062 409.523438 L 409.539062 478.722656 L 340.320312 478.722656 Z M 340.320312 409.523438 " fill-opacity="0.6" fill-rule="nonzero"/><path fill="#124eeb" d="M 409.488281 409.523438 L 478.707031 409.523438 L 478.707031 478.722656 L 409.488281 478.722656 Z M 409.488281 409.523438 " fill-opacity="0.32" fill-rule="nonzero"/><path fill="#124eeb" d="M 478.722656 409.523438 L 547.9375 409.523438 L 547.9375 478.722656 L 478.722656 478.722656 Z M 478.722656 409.523438 " fill-opacity="0.07" fill-rule="nonzero"/><path fill="#124eeb" d="M 271.089844 409.523438 L 340.304688 409.523438 L 340.304688 478.722656 L 271.089844 478.722656 Z M 271.089844 409.523438 " fill-opacity="0.32" fill-rule="nonzero"/><path fill="#124eeb" d="M 201.871094 409.523438 L 271.089844 409.523438 L 271.089844 478.722656 L 201.871094 478.722656 Z M 201.871094 409.523438 " fill-opacity="0.07" fill-rule="nonzero"/><path fill="#124eeb" d="M 340.320312 478.722656 L 409.539062 478.722656 L 409.539062 547.9375 L 340.320312 547.9375 Z M 340.320312 478.722656 " fill-opacity="0.32" fill-rule="nonzero"/><g clip-path="url(#21983e66c8)"><path fill="#124eeb" d="M 271.089844 478.722656 L 340.304688 478.722656 L 340.304688 547.9375 L 271.089844 547.9375 Z M 409.488281 478.722656 L 478.707031 478.722656 L 478.707031 547.9375 L 409.488281 547.9375 Z M 340.320312 547.9375 L 409.539062 547.9375 L 409.539062 617.15625 L 340.320312 617.15625 Z M 340.320312 547.9375 " fill-opacity="0.07" fill-rule="nonzero"/></g><path fill="#124eeb" d="M 271.089844 340.289062 L 340.304688 340.289062 L 340.304688 409.503906 L 271.089844 409.503906 Z M 271.089844 340.289062 " fill-opacity="0.6" fill-rule="nonzero"/><path fill="#124eeb" d="M 201.871094 340.289062 L 271.089844 340.289062 L 271.089844 409.503906 L 201.871094 409.503906 Z M 201.871094 340.289062 " fill-opacity="0.32" fill-rule="nonzero"/><g clip-path="url(#5fb56cdcde)"><path fill="#124eeb" d="M 132.65625 340.289062 L 201.871094 340.289062 L 201.871094 409.503906 L 132.65625 409.503906 Z M 132.65625 340.289062 " fill-opacity="0.07" fill-rule="nonzero"/></g><path fill="#124eeb" d="M 409.488281 340.289062 L 478.707031 340.289062 L 478.707031 409.503906 L 409.488281 409.503906 Z M 409.488281 340.289062 " fill-opacity="0.6" fill-rule="nonzero"/><path fill="#124eeb" d="M 478.722656 340.289062 L 547.9375 340.289062 L 547.9375 409.503906 L 478.722656 409.503906 Z M 478.722656 340.289062 " fill-opacity="0.32" fill-rule="nonzero"/><g clip-path="url(#b08130db74)"><path fill="#124eeb" d="M 547.9375 340.289062 L 617.15625 340.289062 L 617.15625 409.503906 L 547.9375 409.503906 Z M 547.9375 340.289062 " fill-opacity="0.07" fill-rule="nonzero"/></g><path fill="#124eeb" d="M 340.320312 271.089844 L 409.539062 271.089844 L 409.539062 340.304688 L 340.320312 340.304688 Z M 340.320312 271.089844 " fill-opacity="0.6" fill-rule="nonzero"/><path fill="#124eeb" d="M 271.089844 271.089844 L 340.304688 271.089844 L 340.304688 340.304688 L 271.089844 340.304688 Z M 271.089844 271.089844 " fill-opacity="0.32" fill-rule="nonzero"/><path fill="#124eeb" d="M 271.089844 201.871094 L 340.304688 201.871094 L 340.304688 271.089844 L 271.089844 271.089844 Z M 201.871094 271.089844 L 271.089844 271.089844 L 271.089844 340.304688 L 201.871094 340.304688 Z M 201.871094 271.089844 " fill-opacity="0.07" fill-rule="nonzero"/><path fill="#124eeb" d="M 409.488281 271.089844 L 478.707031 271.089844 L 478.707031 340.304688 L 409.488281 340.304688 Z M 409.488281 271.089844 " fill-opacity="0.32" fill-rule="nonzero"/><path fill="#124eeb" d="M 409.488281 201.871094 L 478.707031 201.871094 L 478.707031 271.089844 L 409.488281 271.089844 Z M 478.722656 271.089844 L 547.9375 271.089844 L 547.9375 340.304688 L 478.722656 340.304688 Z M 478.722656 271.089844 " fill-opacity="0.07" fill-rule="nonzero"/><path fill="#124eeb" d="M 340.320312 201.871094 L 409.539062 201.871094 L 409.539062 271.089844 L 340.320312 271.089844 Z M 340.320312 201.871094 " fill-opacity="0.32" fill-rule="nonzero"/><g clip-path="url(#f7a7270cda)"><path fill="#124eeb" d="M 340.320312 132.65625 L 409.539062 132.65625 L 409.539062 201.871094 L 340.320312 201.871094 Z M 340.320312 132.65625 " fill-opacity="0.07" fill-rule="nonzero"/></g></svg>